<?xml version="1.0" encoding="UTF-8"?>
<svg width="32px" height="74px" viewBox="0 0 32 74" version="1.1" xmlns="http://www.w3.org/2000/svg" xmlns:xlink="http://www.w3.org/1999/xlink">
    <title>vapor_right</title>
    <g id="Page-1" stroke="none" stroke-width="1" fill="none" fill-rule="evenodd">
        <g id="undraw_barbecue_3x93" transform="translate(-510.000000, -259.000000)" fill="#E6E6E6" fill-rule="nonzero">
            <path d="M531.33143,259.87366 C525.191572,257.900463 518.464059,259.464036 513.82371,263.94271 C511.435501,266.39859 510.376831,269.854682 510.9798,273.22682 C511.55165,276.86272 513.84733,280.09207 516.3378,282.69455 C521.2108,287.78673 528.0311,291.07925 532.1168,296.92544 C533.928848,299.416409 535.065838,302.333697 535.41732,305.39391 C535.627466,308.143468 535.123273,310.90066 533.95367,313.39791 C530.90535,319.59378 524.85442,323.80791 518.47276,326.52078 C516.98133,327.15478 516.65256,329.35345 517.3965,330.62535 C518.259945,332.019676 520.064548,332.492857 521.50107,331.7016 C533.24465,326.7093 544.11032,315.52726 540.87118,301.78938 C539.16728,294.56276 533.94497,289.46253 528.32112,285.02872 C525.528138,282.981052 522.890218,280.729881 520.42889,278.29358 C518.4843,276.22808 516.46402,273.40798 516.82115,270.60884 C516.964268,269.635474 517.440609,268.741896 518.16894,268.08049 C519.052204,267.273044 520.054804,266.606764 521.14133,266.10518 C523.832062,264.815549 526.926666,264.655009 529.7364,265.65929 C531.332041,266.083711 532.97357,265.151679 533.42676,263.56397 C533.832435,261.970799 532.907424,260.341637 531.33144,259.87362 L531.33143,259.87366 Z" id="vapor_right"></path>
        </g>
    </g>
</svg>