<?xml version="1.0" encoding="UTF-8"?>
<svg width="32px" height="149px" viewBox="0 0 32 149" version="1.1" xmlns="http://www.w3.org/2000/svg" xmlns:xlink="http://www.w3.org/1999/xlink">
    <title>vapor_middle</title>
    <g id="Page-1" stroke="none" stroke-width="1" fill="none" fill-rule="evenodd">
        <g id="undraw_barbecue_3x93" transform="translate(-463.000000, -172.000000)" fill="#E6E6E6" fill-rule="nonzero">
            <path d="M485.65523,174.5243 C483.867351,172.997021 481.610429,172.127954 479.25996,172.06169 C477.030682,172.1035 474.863646,172.804166 473.03188,174.07541 C468.89463,177.080841 465.967784,181.466008 464.77945,186.43967 C461.74755,198.05306 465.70245,210.57039 471.19716,220.79832 C473.97497,225.96897 477.21037,230.87675 480.00674,236.0369 C482.702708,240.972335 484.772571,246.224759 486.1684,251.67255 C489.015082,262.84303 489.269187,274.516619 486.91128,285.80039 C484.50994,297.03176 479.45883,308.15276 470.86558,315.90187 C470.107704,316.659745 469.811718,317.764372 470.089119,318.79965 C470.366519,319.834927 471.175162,320.643572 472.210439,320.920975 C473.245716,321.198377 474.350344,320.902395 475.10822,320.14452 C482.73542,313.26652 487.83594,303.83191 490.91522,294.13029 C494.312346,283.172963 495.305912,271.611775 493.82813,260.2355 C493.160083,254.570352 491.870181,248.996002 489.98175,243.61325 C487.935487,238.190893 485.380124,232.974589 482.34991,228.03425 C476.71044,218.49939 470.70726,208.85573 469.89091,197.50262 C469.48946,191.91971 470.188,186.10016 473.64154,181.61053 C473.45254,181.85621 473.79312,181.43182 473.79459,181.43005 C474.00387,181.179317 474.221007,180.935293 474.446,180.69798 C474.874472,180.23805 475.335093,179.809156 475.82438,179.41454 C475.72023,179.49709 475.45465,179.67442 475.9381,179.33928 C476.17854,179.17259 476.42378,179.01278 476.67604,178.8645 C476.88119,178.74391 477.09204,178.63696 477.30199,178.52558 C477.426657,178.46194 477.553077,178.401993 477.68125,178.34574 C477.38937,178.47156 477.405793,178.472767 477.73052,178.34936 C477.96531,178.2758 479.12752,178.02469 478.48252,178.10618 C478.697607,178.080519 478.913921,178.066458 479.13052,178.06406 C479.22235,178.06241 480.03152,178.10385 479.63624,178.06059 C479.17399,178.01 480.00181,178.14274 480.00774,178.14422 C480.266747,178.207449 480.521199,178.288054 480.76937,178.38549 C480.14525,178.13601 481.79308,179.0626 481.41268,178.7669 C482.605276,179.886568 484.462724,179.886568 485.65532,178.7669 C486.69046,177.73176 486.94184,175.52431 485.65532,174.52426 L485.65523,174.5243 Z" id="vapor_middle"></path>
        </g>
    </g>
</svg>