<?xml version="1.0" encoding="UTF-8"?>
<svg width="723px" height="671px" viewBox="0 0 723 671" version="1.1" xmlns="http://www.w3.org/2000/svg" xmlns:xlink="http://www.w3.org/1999/xlink">
    <title>undraw_barbecue_3x93</title>
    <g id="Page-1" stroke="none" stroke-width="1" fill="none" fill-rule="evenodd">
        <g id="undraw_barbecue_3x93" fill-rule="nonzero">
            <ellipse id="Oval" fill="#3F3D56" cx="358" cy="646.02319" rx="358" ry="24"></ellipse>
            <rect id="Rectangle" fill="#3F3D56" x="352" y="384.02319" width="12" height="7"></rect>
            <rect id="Rectangle" fill="#3F3D56" x="376" y="384.02319" width="12" height="7"></rect>
            <rect id="Rectangle" fill="#3F3D56" x="400" y="384.02319" width="12" height="7"></rect>
            <rect id="Rectangle" fill="#3F3D56" x="424" y="384.02319" width="12" height="7"></rect>
            <rect id="Rectangle" fill="#3F3D56" x="448" y="384.02319" width="12" height="7"></rect>
            <rect id="Rectangle" fill="#3F3D56" x="472" y="384.02319" width="12" height="7"></rect>
            <rect id="Rectangle" fill="#3F3D56" x="496" y="384.02319" width="12" height="7"></rect>
            <rect id="Rectangle" fill="#3F3D56" x="520" y="384.02319" width="12" height="7"></rect>
            <rect id="Rectangle" fill="#3F3D56" x="544" y="384.02319" width="12" height="7"></rect>
            <rect id="Rectangle" fill="#3F3D56" x="568" y="384.02319" width="12" height="7"></rect>
            <rect id="Rectangle" fill="#3F3D56" x="592" y="384.02319" width="12" height="7"></rect>
            <path d="M631.5,388.5232 C631.5,468.052204 567.029004,532.5232 487.5,532.5232 C407.970996,532.5232 343.5,468.052204 343.5,388.5232 L631.5,388.5232 Z" id="Path" fill="#3F3D56"></path>
            <path d="M624.53998,389.44318 L532.93998,116.40318 C569.146628,104.229487 608.707861,106.950862 642.906526,123.967661 C677.105191,140.984461 703.134852,170.90024 715.25998,207.12318 C716.22998,210.01318 717.10998,212.92318 717.88998,215.83318 C737.459092,289.269499 696.592669,365.271853 624.53998,389.44318 L624.53998,389.44318 Z" id="Path" fill="#3F3D56"></path>
            <circle id="Oval" fill="#3F3D56" cx="628" cy="393.02319" r="18"></circle>
            <path d="M445.00045,426.02332 C442.239026,426.02332 440.00045,428.261896 440.00045,431.02332 C440.00045,433.784744 442.239026,436.02332 445.00045,436.02332 L531.00045,436.02332 C533.761874,436.02332 536.00045,433.784744 536.00045,431.02332 C536.00045,428.261896 533.761874,426.02332 531.00045,426.02332 L445.00045,426.02332 Z" id="Path" fill="#6C63FF"></path>
            <polygon id="Path" fill="#3F3D56" points="607 649.023 589.094 649.685 524.584 510.95 540.906 503.361"></polygon>
            <polygon id="Path" fill="#3F3D56" points="368 649.023 385.906 649.685 450.416 510.95 434.094 503.361"></polygon>
            <rect id="Rectangle" fill="#3F3D56" x="414" y="569.02319" width="148" height="10"></rect>
            <path d="M536.60107,111.3056 C535.175057,111.306265 533.833728,111.982686 532.985427,113.128941 C532.137125,114.275195 531.88223,115.755647 532.29834,117.1196 L536.09228,129.55368 C536.819466,131.928629 539.333162,133.265482 541.708855,132.540731 C544.084548,131.815979 545.423977,129.303655 544.70166,126.92722 L540.90771,114.49314 C540.32731,112.6006 538.580607,111.307786 536.60107,111.3056 L536.60107,111.3056 Z" id="Path" fill="#6C63FF"></path>
            <path d="M337.499961,391.02332 C335.014679,391.02332 332.999961,393.038039 332.999961,395.52332 C332.999961,398.008601 335.014679,400.02332 337.499961,400.02332 L350.499961,400.02332 C352.985241,400.02332 354.999961,398.008601 354.999961,395.52332 C354.999961,393.038039 352.985241,391.02332 350.499961,391.02332 L337.499961,391.02332 Z" id="Path" fill="#6C63FF"></path>
            <path d="M445,358.0232 L391,358.0232 C390.66,358.0232 390.33,358.0332 390,358.0632 C382.680997,358.585643 377.007848,364.671626 376.999956,372.009248 C376.99208,379.346869 382.652137,385.44503 389.97,385.9832 C390.31,386.0132 390.65005,386.0232 391,386.0232 L445,386.0232 C452.731986,386.0232 459,379.755186 459,372.0232 C459,364.291214 452.731986,358.0232 445,358.0232 L445,358.0232 Z" id="Path" fill="#FF6584"></path>
            <path d="M385.56,384.9132 C394.76,383.7332 402,372.1232 402,358.0232 L400,358.0232 C400,371.8132 392.82,383.0232 384,383.0232 L384,384.1432 L385.56,384.9132 Z" id="Path" fill="#000000" opacity="0.2"></path>
            <path d="M405,385.0232 L405,383.0232 C413.82227,383.0232 421,371.80835 421,358.0232 L423,358.0232 C423,372.91089 414.92529,385.0232 405,385.0232 Z" id="Path" fill="#000000" opacity="0.2"></path>
            <path d="M426,385.0232 L426,383.0232 C434.82227,383.0232 442,371.80835 442,358.0232 L444,358.0232 C444,372.91089 435.92529,385.0232 426,385.0232 Z" id="Path" fill="#000000" opacity="0.2"></path>
            <path d="M543,358.0232 L489,358.0232 C488.66,358.0232 488.33,358.0332 488,358.0632 C480.680997,358.585643 475.007848,364.671626 474.999956,372.009248 C474.99208,379.346869 480.652137,385.44503 487.97,385.9832 C488.31,386.0132 488.65005,386.0232 489,386.0232 L543,386.0232 C550.731986,386.0232 557,379.755186 557,372.0232 C557,364.291214 550.731986,358.0232 543,358.0232 L543,358.0232 Z" id="Path" fill="#FF6584"></path>
            <path d="M483.56,384.9132 C492.76,383.7332 500,372.1232 500,358.0232 L498,358.0232 C498,371.8132 490.82,383.0232 482,383.0232 L482,384.1432 L483.56,384.9132 Z" id="Path" fill="#000000" opacity="0.2"></path>
            <path d="M503,385.0232 L503,383.0232 C511.82227,383.0232 519,371.80835 519,358.0232 L521,358.0232 C521,372.91089 512.92529,385.0232 503,385.0232 Z" id="Path" fill="#000000" opacity="0.2"></path>
            <path d="M524,385.0232 L524,383.0232 C532.82227,383.0232 540,371.80835 540,358.0232 L542,358.0232 C542,372.91089 533.92529,385.0232 524,385.0232 Z" id="Path" fill="#000000" opacity="0.2"></path>
            <polygon id="Path" fill="#FFB9B9" points="255.288 625.401 232.67 631.401 191.127 439.38 237.748 435.225"></polygon>
            <polygon id="Path" fill="#FFB9B9" points="151.804 628.352 128.666 631.848 108.331 436.439 155.126 437.398"></polygon>
            <path d="M139.89084,350.29271 L142.02736,390.17438 C142.186367,393.142518 141.047743,396.033268 138.907277,398.095677 C136.766812,400.158086 133.835777,401.188588 130.87559,400.91948 L130.87559,400.91948 C125.940819,400.470869 122.035384,396.553056 121.60239,391.61689 L117.73452,347.52317 L87.26952,244.12694 L88.1927,177.65794 L124.19675,179.5043 L139.89084,350.29271 Z" id="Path" fill="#FFB9B9"></path>
            <path d="M159.27763,448.14986 C141.243043,441.8883 120.317617,440.657393 96.50135,444.45714 C99.87898,404.44725 101.83511,367.29363 100.19407,337.36814 L222.97707,337.36814 L159.27763,448.14986 Z" id="Path" fill="#2F2E41"></path>
            <path d="M245.13343,447.22668 C226.54529,457.05968 199.65709,461.76705 168.50943,463.84393 L129.73584,340.13773 L224.82344,338.29137 L245.13343,447.22668 Z" id="Path" fill="#2F2E41"></path>
            <path d="M292.9976,645.47491 L226.10765,647.95168 C217.53918,648.26895 217.08728,640.91078 218.70484,632.49039 L226.62407,609.87791 C244.45359,627.34537 246.13264,628.32155 253.77575,603.47379 L277.10213,621.89774 L294.36838,624.85789 C299.360905,625.713823 303.007921,630.046181 303.000003,635.11154 L303.000003,635.11154 C302.99125,640.692111 298.574356,645.268408 292.9976,645.47491 L292.9976,645.47491 Z" id="Path" fill="#2F2E41"></path>
            <path d="M191.68825,645.47491 L124.7983,647.95168 C116.22983,648.26895 115.77793,640.91078 117.39549,632.49039 L125.31472,609.87791 C143.14424,627.34537 144.82329,628.32155 152.4664,603.47379 L175.79278,621.89774 L193.05903,624.85789 C198.051555,625.713823 201.698571,630.046181 201.690653,635.11154 L201.690653,635.11154 C201.6819,640.692111 197.265006,645.268408 191.68825,645.47491 L191.68825,645.47491 Z" id="Path" fill="#2F2E41"></path>
            <circle id="Oval" fill="#FFB9B9" cx="207.28302" cy="43.79674" r="36.00404"></circle>
            <polygon id="Path" fill="#FFB9B9" points="188.819 107.496 146.353 94.572 174.972 52.105 207.283 65.953"></polygon>
            <path d="M228.51618,348.44635 C184.8613,358.26135 136.40062,354.36735 94.65499,342.90727 C104.65187,287.1619 99.82545,227.28439 90.03908,178.58112 C82.37908,140.46012 102.58591,108.47153 136.19808,92.72532 C143.422934,90.1344205 150.939025,88.4419618 158.57708,87.68606 C182.15508,85.59701 202.90136,103.27622 205.361,126.81849 L228.51618,348.44635 Z" id="Path" fill="#6C63FF"></path>
            <polygon id="Path" fill="#6C63FF" points="114.965 197.045 84.5 193.352 93.732 145.347 114.965 145.347"></polygon>
            <path d="M206.77961,49.49753 L201.26385,47.04621 C198.734453,45.9254654 195.840444,45.9722743 193.348615,47.1742343 C190.856786,48.3761944 189.018655,50.6119829 188.32125,53.28921 L188.32125,53.28921 L180.63449,67.17774 L161.48949,64.14735 L162.15824,34.74665 C163.920243,23.5165739 170.254879,13.517858 179.656149,7.12760061 C189.057419,0.737343204 200.685551,-1.47364396 211.77607,1.02028 L212.29866,1.1385 C221.64516,3.25284 233.77874,10.11503 240.11278,17.31857 L251.91428,30.74012 C253.054869,32.0379993 253.379288,33.8623778 252.756063,35.4739064 C252.132838,37.085435 250.665337,38.2168257 248.94828,38.40957 L232.80776,40.19057 L206.77961,49.49753 Z" id="Path" fill="#2F2E41"></path>
            <path d="M326.20107,295.03703 L305.52707,313.1709 C304.904176,313.716226 303.957254,313.653799 303.411342,313.031419 C302.86543,312.409038 302.926964,311.462058 303.54883,310.91556 L324.22283,292.78169 L320.26635,288.27101 L299.59235,306.40488 C298.969456,306.950206 298.022534,306.887779 297.476622,306.265399 C296.93071,305.643018 296.992244,304.696038 297.61411,304.14954 L318.28811,286.01566 L314.33163,281.50498 L293.65763,299.63885 C293.254832,299.99283 292.693709,300.104864 292.185863,299.932702 C291.678016,299.76054 291.300701,299.330373 291.196204,298.804418 C291.091708,298.278463 291.275926,297.736731 291.67939,297.38351 L312.35339,279.24964 L307.40778,273.61129 L278.19196,299.23754 C272.817497,303.953691 271.475137,311.786884 274.97266,318.02341 L186.7663,395.39241 L194.6793,404.41377 L282.8283,327.09512 C288.376512,331.474815 296.259811,331.27218 301.57569,326.61323 L331.14669,300.67542 L326.20107,295.03703 Z" id="Path" fill="#E6E6E6"></path>
            <path d="M225.74663,350.29271 L227.88315,390.17438 C228.04216,393.142517 226.903538,396.033267 224.763074,398.095677 C222.62261,400.158086 219.691576,401.188588 216.73139,400.91948 L216.73139,400.91948 C211.796619,400.470869 207.891184,396.553056 207.45819,391.61689 L203.59032,347.52317 L173.12532,244.12694 L174.0485,177.65794 L210.0525,179.5043 L225.74663,350.29271 Z" id="Path" fill="#FFB9B9"></path>
            <path d="M212.82207,189.65929 C201.86707,179.15078 187.40707,178.76492 171.27894,183.19702 L171.27894,133.5833 C171.27894,121.215235 181.305235,111.18893 193.6733,111.18893 L193.6733,111.18893 C199.195702,111.18893 204.484696,113.416234 208.343423,117.366823 C212.20215,121.317412 214.304425,126.657336 214.17452,132.17821 L212.82207,189.65929 Z" id="Path" fill="#6C63FF"></path>
        </g>
    </g>
</svg>