<?xml version="1.0" encoding="UTF-8"?>
<svg width="32px" height="107px" viewBox="0 0 32 107" version="1.1" xmlns="http://www.w3.org/2000/svg" xmlns:xlink="http://www.w3.org/1999/xlink">
    <title>vapor_left</title>
    <g id="Page-1" stroke="none" stroke-width="1" fill="none" fill-rule="evenodd">
        <g id="undraw_barbecue_3x93" transform="translate(-419.000000, -222.000000)" fill="#E6E6E6" fill-rule="nonzero">
            <path d="M441.04807,223.57977 C433.97107,219.75643 425.22166,223.92621 421.69507,230.69386 C417.40544,238.92578 420.96098,248.82221 425.96307,255.85826 C431.16098,263.1697 438.2157,269.20468 441.6855,277.65388 C448.53982,294.073613 442.530946,313.042453 427.47273,322.52082 C424.21801,324.57969 427.22502,329.77399 430.50104,327.70164 C445.130158,318.562772 452.769871,301.476476 449.82633,284.48043 C449.096098,280.171281 447.703454,276.00108 445.69783,272.11785 C443.5233,268.1547 440.903791,264.452532 437.8901,261.08314 C432.68471,254.92261 426.13195,248.13114 425.80533,239.55994 C425.745583,238.448077 425.823128,237.333089 426.03621,236.2402 C426.19216,235.476719 426.424157,234.730769 426.72873,234.01351 C427.456352,232.473509 428.536075,231.126293 429.88064,230.08074 C431.127278,229.086447 432.602153,228.41867 434.17182,228.13783 C435.487995,227.94258 436.832332,228.160153 438.01973,228.76059 C441.41722,230.59607 444.45013,225.41773 441.04805,223.57977 L441.04807,223.57977 Z" id="vapor_left"></path>
        </g>
    </g>
</svg>